<svg width="157" height="70" viewBox="0 0 157 70" fill="none" xmlns="http://www.w3.org/2000/svg">
<rect x="2" y="2" width="66" height="66" rx="12" stroke="url(#paint0_linear)" stroke-width="4"/>
<path d="M47.5173 51.04C45.784 51.04 44.544 50.5467 43.7973 49.56C43.0507 48.5467 42.6773 47.0667 42.6773 45.12C42.6773 43.1733 43.304 38.6933 44.5573 31.68H43.9173C42.2907 33.8133 40.944 36.36 39.8773 39.32C38.8107 42.28 38.1573 44.9467 37.9173 47.32C36.6107 48.5467 35.104 49.16 33.3973 49.16C32.704 49.16 32.0907 48.92 31.5573 48.44C31.0507 47.9333 30.544 47.0667 30.0373 45.84C29.0507 43.36 28.344 38.64 27.9173 31.68H27.2773C25.9707 37.4133 25.3173 41.4533 25.3173 43.8C25.3173 46.1467 25.7173 47.96 26.5173 49.24C24.9173 50.44 23.2507 51.04 21.5173 51.04C19.784 51.04 18.544 50.5467 17.7973 49.56C17.0507 48.5467 16.6773 47.0533 16.6773 45.08C16.6773 43.08 17.5173 37.44 19.1973 28.16L17.0773 23.88C20.0907 21.9333 22.8373 20.96 25.3173 20.96C26.4107 20.96 27.3307 21.08 28.0773 21.32C28.8507 21.5333 29.584 21.96 30.2773 22.6C30.9973 23.24 31.584 24.1333 32.0373 25.28C33.0773 27.8667 33.824 31.64 34.2773 36.6H34.7573C36.144 32.52 38.064 29.0133 40.5173 26.08C41.8507 24.5067 43.4373 23.2667 45.2773 22.36C47.144 21.4533 49.1573 21 51.3173 21C53.3707 21 54.3973 22.24 54.3973 24.72C54.3973 25.5467 53.8773 28.6267 52.8373 33.96C51.824 39.2667 51.3173 42.4267 51.3173 43.44C51.3173 46.0267 51.7173 47.96 52.5173 49.24C50.9173 50.44 49.2507 51.04 47.5173 51.04Z" fill="white"/>
<path d="M91.7709 30.24C92.5443 29.1733 93.5976 28.3067 94.9309 27.64C96.2909 26.9467 97.7976 26.6 99.4509 26.6C101.398 26.6 103.158 27.0667 104.731 28C106.304 28.9333 107.544 30.2667 108.451 32C109.358 33.7067 109.811 35.6667 109.811 37.88C109.811 40.0933 109.358 42.08 108.451 43.84C107.544 45.5733 106.291 46.9333 104.691 47.92C103.118 48.88 101.371 49.36 99.4509 49.36C97.7443 49.36 96.2243 49.0267 94.8909 48.36C93.5843 47.6933 92.5443 46.84 91.7709 45.8V49H87.2109V19.4H91.7709V30.24ZM105.171 37.88C105.171 36.36 104.851 35.0533 104.211 33.96C103.598 32.84 102.771 32 101.731 31.44C100.718 30.8533 99.6243 30.56 98.4509 30.56C97.3043 30.56 96.2109 30.8533 95.1709 31.44C94.1576 32.0267 93.3309 32.88 92.6909 34C92.0776 35.12 91.7709 36.44 91.7709 37.96C91.7709 39.48 92.0776 40.8133 92.6909 41.96C93.3309 43.08 94.1576 43.9333 95.1709 44.52C96.2109 45.1067 97.3043 45.4 98.4509 45.4C99.6243 45.4 100.718 45.1067 101.731 44.52C102.771 43.9067 103.598 43.0267 104.211 41.88C104.851 40.7333 105.171 39.4 105.171 37.88ZM123.88 49.36C121.8 49.36 119.92 48.8933 118.24 47.96C116.56 47 115.24 45.6667 114.28 43.96C113.32 42.2267 112.84 40.2267 112.84 37.96C112.84 35.72 113.334 33.7333 114.32 32C115.307 30.2667 116.654 28.9333 118.36 28C120.067 27.0667 121.974 26.6 124.08 26.6C126.187 26.6 128.094 27.0667 129.8 28C131.507 28.9333 132.854 30.2667 133.84 32C134.827 33.7333 135.32 35.72 135.32 37.96C135.32 40.2 134.814 42.1867 133.8 43.92C132.787 45.6533 131.4 47 129.64 47.96C127.907 48.8933 125.987 49.36 123.88 49.36ZM123.88 45.4C125.054 45.4 126.147 45.12 127.16 44.56C128.2 44 129.04 43.16 129.68 42.04C130.32 40.92 130.64 39.56 130.64 37.96C130.64 36.36 130.334 35.0133 129.72 33.92C129.107 32.8 128.294 31.96 127.28 31.4C126.267 30.84 125.174 30.56 124 30.56C122.827 30.56 121.734 30.84 120.72 31.4C119.734 31.96 118.947 32.8 118.36 33.92C117.774 35.0133 117.48 36.36 117.48 37.96C117.48 40.3333 118.08 42.1733 119.28 43.48C120.507 44.76 122.04 45.4 123.88 45.4ZM149.268 37.84L156.388 49H151.228L146.468 41.52L141.988 49H137.228L144.348 38.16L137.228 26.96H142.388L147.148 34.44L151.628 26.96H156.388L149.268 37.84Z" fill="white"/>
<defs>
<linearGradient id="paint0_linear" x1="3.29954e-07" y1="5" x2="70" y2="70" gradientUnits="userSpaceOnUse">
<stop stop-color="#326CFF"/>
<stop offset="1" stop-color="#26FFF2"/>
</linearGradient>
</defs>
</svg>
